<mxfile host="app.diagrams.net" modified="2023-02-09T08:33:52.200Z" agent="5.0 (Windows NT 10.0; WOW64) AppleWebKit/537.36 (KHTML, like Gecko) Chrome/86.0.4240.198 Safari/537.36" etag="bc0rRH4CISrCOreDznWF" version="20.8.17" type="github">
  <diagram name="第 1 页" id="VAd9tb3ClLgYUETe6N-B">
    <mxGraphModel dx="1612" dy="783" grid="1" gridSize="10" guides="1" tooltips="1" connect="1" arrows="1" fold="1" page="1" pageScale="1" pageWidth="827" pageHeight="1169" math="0" shadow="0">
      <root>
        <mxCell id="0" />
        <mxCell id="1" parent="0" />
        <mxCell id="4idDteOgrwO9_49UgZM6-3" value="" style="edgeStyle=orthogonalEdgeStyle;rounded=0;orthogonalLoop=1;jettySize=auto;html=1;" edge="1" parent="1" source="4idDteOgrwO9_49UgZM6-1" target="4idDteOgrwO9_49UgZM6-2">
          <mxGeometry relative="1" as="geometry" />
        </mxCell>
        <mxCell id="4idDteOgrwO9_49UgZM6-1" value="灰度" style="ellipse;whiteSpace=wrap;html=1;" vertex="1" parent="1">
          <mxGeometry x="170" y="10" width="120" height="80" as="geometry" />
        </mxCell>
        <mxCell id="4idDteOgrwO9_49UgZM6-2" value="" style="rounded=1;whiteSpace=wrap;html=1;" vertex="1" parent="1">
          <mxGeometry x="170" y="160" width="120" height="60" as="geometry" />
        </mxCell>
        <mxCell id="4idDteOgrwO9_49UgZM6-4" value="种子" style="ellipse;whiteSpace=wrap;html=1;" vertex="1" parent="1">
          <mxGeometry x="450" y="10" width="120" height="80" as="geometry" />
        </mxCell>
        <mxCell id="4idDteOgrwO9_49UgZM6-5" value="生产" style="ellipse;whiteSpace=wrap;html=1;" vertex="1" parent="1">
          <mxGeometry x="730" y="10" width="120" height="80" as="geometry" />
        </mxCell>
        <mxCell id="4idDteOgrwO9_49UgZM6-6" value="三方" style="rounded=1;whiteSpace=wrap;html=1;" vertex="1" parent="1">
          <mxGeometry x="340" y="660" width="120" height="60" as="geometry" />
        </mxCell>
        <mxCell id="4idDteOgrwO9_49UgZM6-7" value="存储" style="rounded=1;whiteSpace=wrap;html=1;" vertex="1" parent="1">
          <mxGeometry x="570" y="660" width="120" height="60" as="geometry" />
        </mxCell>
        <mxCell id="4idDteOgrwO9_49UgZM6-10" value="边车" style="rounded=1;whiteSpace=wrap;html=1;" vertex="1" parent="1">
          <mxGeometry x="460" y="450" width="120" height="60" as="geometry" />
        </mxCell>
      </root>
    </mxGraphModel>
  </diagram>
</mxfile>
